<svg viewBox="0 0 35 35" xmlns="http://www.w3.org/2000/svg"><path d="M21.1 20.8v-15l-3.5-4.1L14 5.9v14.9h7.1zM26.6 25.9c-.4-1-.8-1.9-1.2-2.9-.1-.2-.2-.3-.3-.4-.1 0-.2-.1-.4-.1H10.3c-.1 0-.3 0-.4.1-.1.1-.3.2-.3.4-.4 1-.8 1.9-1.2 2.9-.1.2-.1.5.1.6.2.1.5.1.6-.1.4-.3 1.3-1.3 1.5-1.6 0 0 .1 0 .1-.1h5.1c.3.1.4.4.4.8v3.7c-.1 0-.1.1-.1.1-.1.1-.3.2-.4.3-.5.5-.8 1.1-.8 1.9 0 .3.1.5.1.8v.1c0 .1.1.2.1.3.2.4.6.8 1 1.1h.1c.1 0 .2.1.3.1.1 0 .1 0 .2.1h1.4c.1 0 .2 0 .2-.1.1 0 .2-.1.3-.1h.1c.4-.3.8-.6 1-1.1.1-.1.1-.2.1-.3v-.1c.1-.2.1-.5.1-.8 0-.7-.3-1.4-.8-1.9-.1-.1-.2-.2-.4-.3-.1 0-.1-.1-.1-.1V25.5c0-.4.1-.7.4-.8h5.1s.1 0 .1.1c.3.2 1.1 1.2 1.5 1.6.2.2.4.2.6.1.5-.1.4-.4.3-.6z" fill="#ccad70"/></svg>