<svg viewBox="0 0 35 35" xmlns="http://www.w3.org/2000/svg"><switch><g fill="#ccad70"><path d="M26.5 11.7c-2.2.8-3.6 2.2-4.4 4.5-.8-2.2-2.2-3.7-4.4-4.4 2.2-.8 3.6-2.2 4.4-4.4.7 2 2.2 3.5 4.4 4.3zM5.8 19.1l5.8-2c.4-.1.6-.4.8-.7l2-5.7 2 5.8c.1.3.4.6.7.7l5.9 2.1-5.7 2c-.4.1-.7.5-.9.9l-2.1 5.6-2.3-5.6c-.2-.5-.6-.9-1.1-1.1l-5.1-2zM11.4 11.7s-6.1.4-8.7 6.3c-.1.2 3.8-1.2 3.8-1.2.7-2.5 3.8-3.7 3.8-3.7l1.1-1.4zM28.8 13.4L27 14.8c3.1 1.6 1.8 3.1 1.1 3.7-2.6 2.1-7.7 5.1-7.5 5s10.8-.4 11.7-6c.4-2.2-3.5-4.1-3.5-4.1z"/></g></switch></svg>