<svg viewBox="0 0 35 35" xmlns="http://www.w3.org/2000/svg"><switch><g fill="#ccad70"><path d="M11.5 15.6v1c0 .5-.2 1-.4 1.4l-3.8 5.5s-2.1-2.2-1.9-6.9l6.1-1zM14.4 11.9L8.9 8.2s-3.6 4.2-3.1 6l7-1.4c.3-.1.5-.2.8-.3l.8-.6zM12.5 20.2l-3.7 5.2c1.9 2.5 6.1 3.6 6.1 3.6l-1.2-7.2c-.1-.4-.3-.8-.5-1l-.7-.6zM24.3 27.3l-6.4-4.5h-1.3l.8 6.2c4.9 0 6.9-1.7 6.9-1.7zM10.8 6.7l6 4.1h1.6l-.6-6.2c-5.3 0-7 2.1-7 2.1zM20.4 5.1l1.7 8.5h.5l3.7-5.1c-2.9-3.3-5.9-3.4-5.9-3.4zM23.8 17.7v-1.1l4.2-6.5c1.9 3.3 1.9 7.1 1.9 7.1l-6.1.5zM20.9 21.9L22 21l7.4-1.5c-.7 3.9-3.1 6.2-3.1 6.2l-5.4-3.8z"/></g></switch></svg>