<svg viewBox="0 0 35 35" xmlns="http://www.w3.org/2000/svg">
    <g fill="#ccad70">
        <path d="M4.8 5l7.9 8.6h9.9L30.2 5v2.4l-6.2 11s-2.4 1.4-3.5 2.1c-1.5
               1.1-2.9 6.3-2.9 6.3s-1.5-5.4-2.9-6.3c-1.1-.7-3.7-2.2-3.7-2.2L4.8
               7.5V5z"/>
        <path d="M13.1 11.6h9.1L25.9 7c-1.4-2.9-4.2-4.7-8.1-4.7-3.9 0-7.1
        1.7-8.4 4.7l3.7 4.6zM7.9 16.7v6.2l6.7 9.4h5.9l6.7-9.9v-5.8s-1.1 1.9-1.3
        2.6c-.1.4 0 1.6 0 1.6s-3.1 1.7-3.9 2.7c-1.9 2.6-2.2 5.7-2.2
        5.7l-4.5-.1s-.7-3-2-5.2c-.9-1.5-4.1-3.3-4.1-3.3s.1-1.2
        0-1.5c-.2-.7-1.3-2.4-1.3-2.4z"/>
    </g>
</svg>