<svg viewBox="0 0 35 35" xmlns="http://www.w3.org/2000/svg"><path d="M27.9 19.2c-1.2 1.2-2.9.4-2.9-1.5 0-2.6 3.4-4.1 1.8-9.3 0-.2-.2-.2-.4-.1-4.5 3.7-6.3-5.9-8.1-5.9-1.7 0-3.6 9.6-8.1 5.9-.1-.1-.3 0-.4.1-1.7 5.2 1.8 6.8 1.8 9.3 0 1.9-1.7 2.8-2.9 1.5-.1-.1-.4-.1-.4.1-.7 3.9 4.8 4.8 7.2 7.4h-2.1l.8 1.5c.2.4.7.7 1.2.7H17c.4 1.2.4 2.4 0 3.6h2.8c-.4-1.2-.4-2.4 0-3.6h1.5c.5 0 1-.3 1.2-.7l.8-1.5h-2.1c2.4-2.5 7.9-3.5 7.2-7.4-.1-.2-.4-.2-.5-.1zM20 26.7h-3.2l-1.9-13.4 3.4-5.7c0-.1.1-.1.2 0l3.4 5.7L20 26.7z" fill="#ccad70"/><path d="M26.7 15.9c-.5.8-.6 1.8-.1 2.1.4.2 1 0 1.5-.6.1 0 .1-.1.2-.2 1-1.3 1.4-4 .5-4-.8 0-.3.5-1 1.3l-.8 1.1-.3.3zM12.7 6.1c.1.5.1.7.7.8.6.2.6-.6.5-.8-.1-.2-.2-1.8-1-1.6-.4.2-.2 1.5-.2 1.6zM8.1 14.9c-.6-.4-.6-.8-1.2-.7-.6.5.1 1.6.2 1.9.1.3.7 1.6 1.6.8.5-.4-.1-1.6-.6-2z" fill="#ccad70"/></svg>