<svg viewBox="0 0 35 35" xmlns="http://www.w3.org/2000/svg"><switch><g fill="#ccad70"><path d="M4.1 17.8c-.3-.1-.2-.4 0-.5 2.4-.3 9.9-1.4 10.6-2.6.9-1.4 2.4-8.4 2.8-11 0-.2.3-.2.4 0 .4 2.5 1.8 9.8 3 11 1.4 1.4 8.1 2.5 9.9 2.8.5.1.4.4 0 .5-1.9.3-8.4 1.9-9.7 3.3-1 1.1-3.3 10-3.3 10 0 .1-.1.1-.1 0 0 0-1.9-8.6-2.8-10-1.1-1.7-8.3-2.9-10.8-3.5z"/><path d="M20.4 5s3.1-.1 4.2.4c1.8.9 4.7 9.7 4.7 9.7h-2.5s-2-7-3.4-7.8c-.6-.4-2.5-.3-2.5-.3l-.5-2zM15.4 5s-3.1-.1-4.2.4c-1.8.9-4.7 9.7-4.7 9.7H9s2-7 3.4-7.8c.6-.4 2.5-.3 2.5-.3l.5-2zM15.3 30.8s-3.1.1-4.2-.4c-1.8-.9-4.7-9.7-4.7-9.7H9s2 7 3.4 7.8c.5.3 2.4.3 2.4.3l.5 2zM20.3 30.8s3.1.1 4.2-.4c1.8-.9 4.7-9.7 4.7-9.7h-2.5s-2 7-3.4 7.8c-.5.3-2.4.3-2.4.3l-.6 2z"/></g></switch></svg>