<svg viewBox="0 0 35 35" xmlns="http://www.w3.org/2000/svg"><path d="M29.4 17.5h3.8s-2.2 4.9-7.4 8.1v-1.2c2.8-3.7 3.6-6.9 3.6-6.9zM5.6 17.5H1.8s2.2 4.9 7.4 8.1v-1.2c-2.8-3.7-3.6-6.9-3.6-6.9zM21.3 17.3c1.9-.2 3.2.1 5.1 1l.6.3c-.8 1.8-2.3 3.5-4.2 4.5.8 1.6 1 3.5.7 5.4 0 .2-.1.4-.1.6-2.1-.2-4.2-1-5.8-2.4-1.4 1.2-3.2 2-5.2 2.3-.2 0-.4.1-.7.1-.5-2-.3-4.1.6-6.1-1.6-.9-3-2.3-3.9-4l-.3-.6c1.8-1 3.4-1.5 5.6-1.3.4-1.8 1.9-3.4 3.3-4.8.2-.2.3-.3.5-.4 1.6 1.5 3.3 3.3 3.8 5.4zM11.8 15.4s-2.3.3-3.9.7C6 14.6 6 8.5 6 8.5s5.2 2.5 6.5 4.7c.3.5-.2 1.5-.7 2.2zM23.2 15.4s2.3.3 3.9.7C29 14.6 29 8.5 29 8.5s-5.2 2.5-6.5 4.7c-.2.5.2 1.5.7 2.2z" fill="#ccad70"/></svg>