<svg viewBox="0 0 35 35" xmlns="http://www.w3.org/2000/svg"><path d="M31.8 12.8V7.4c0-.5-.4-1-1-1-.5 0-1 .4-1 1v4.5l-.6-.3c-1.1-5.4-6-9.5-11.7-9.5H17c-5.8 0-10.6 4.1-11.7 9.6l-2.9 1.6V20L5 21.8v3.5s4.8 3.1 12.3 3.1c7.4 0 12.3-3.1 12.3-3.1v-3.5l3.1-2v-6.7l-.9-.3zM26 20.2c-2 .6-4.8 1.6-8.7 1.6-3.8 0-6.5-1-8.6-1.6v-7.8c2.2-1 5.1-1.8 8.7-1.8 3.6 0 6.4.8 8.5 1.7v7.9z" fill="#ccad70"/><path d="M28.9 27.5c-.1 0-1.2.6-3.2 1.2s-4.9 1.2-8.3 1.2c-3.5 0-6.5-.6-8.5-1.2-1-.3-1.8-.6-2.3-.8-.3-.1-.5-.2-.6-.3-.1 0-.1-.1-.1-.1-.8-.4-1.7-.1-2.1.6-.4.7-.1 1.7.6 2.1.1 0 1.4.7 3.6 1.4 2.3.7 5.5 1.3 9.4 1.3 3.9 0 7.1-.7 9.4-1.3 2.3-.7 3.5-1.4 3.6-1.4.7-.4 1-1.3.6-2.1-.5-.7-1.4-1-2.1-.6z" fill="#ccad70"/></svg>