<svg viewBox="0 0 35 35" xmlns="http://www.w3.org/2000/svg"><switch><g fill="#ccad70"><path d="M25.4 8.8H7.7c-1.3 0-2.4-1.1-2.4-2.4v-.5c0-.3.3-.6.6-.6h21.5c.3 0 .6.3.6.6v.3c.1 1.4-1.1 2.6-2.6 2.6zM18.2 26.3L27.1 11c.7-1.1 2.1-1.5 3.2-.9l.8.4c.3.2.4.5.2.8L20.5 30c-.2.3-.5.4-.8.2l-.5-.3c-1.3-.7-1.7-2.3-1-3.6zM6 11.2l9.2 15.1c.7 1.1.3 2.6-.8 3.2l-.8.5c-.3.2-.7.1-.8-.2L1.6 11.5c-.2-.3-.1-.7.2-.8l.5-.3c1.3-.8 3-.4 3.7.8zM11.5 11.8h10.4c.8 0 1.3.8.9 1.5l-5.2 9.4c-.4.7-1.4.7-1.8 0l-5.2-9.4c-.4-.7.1-1.5.9-1.5z"/></g></switch></svg>