<svg id="Layer_1" data-name="Layer 1" xmlns="http://www.w3.org/2000/svg" xmlns:xlink="http://www.w3.org/1999/xlink" viewBox="0 0 36 36"><defs><style>.cls-1{fill:url(#linear-gradient);}.cls-2{fill:#ff29fa;}.cls-3{fill:url(#linear-gradient-2);}</style><linearGradient id="linear-gradient" x1="18" y1="34.84" x2="18" y2="1.16" gradientUnits="userSpaceOnUse"><stop offset="0.3" stop-color="#9a4b00"/><stop offset="0.36" stop-color="#b15d17"/><stop offset="0.49" stop-color="#dc8044"/><stop offset="0.55" stop-color="#ed8e55"/><stop offset="1" stop-color="#bc703e"/></linearGradient><linearGradient id="linear-gradient-2" x1="9.99" y1="34.65" x2="9.99" y2="24.76" gradientUnits="userSpaceOnUse"><stop offset="0" stop-color="#fdd7fa"/><stop offset="0.07" stop-color="#f3c2f3"/><stop offset="0.28" stop-color="#db8ce3"/><stop offset="0.44" stop-color="#cc6ad8"/><stop offset="0.52" stop-color="#c65dd4"/><stop offset="0.53" stop-color="#cf6bd9"/><stop offset="0.55" stop-color="#df84e4"/><stop offset="0.57" stop-color="#ec97eb"/><stop offset="0.6" stop-color="#f5a5f1"/><stop offset="0.63" stop-color="#faadf4"/><stop offset="0.69" stop-color="#fcaff5"/><stop offset="0.72" stop-color="#f6a6f2"/><stop offset="0.84" stop-color="#dc7fe2"/><stop offset="0.94" stop-color="#cc66d8"/><stop offset="1" stop-color="#c65dd4"/></linearGradient></defs><polygon class="cls-1" points="18 1.16 3 10.14 3 25.86 18 34.84 33 25.86 33 10.14 18 1.16"/><path class="cls-2" d="M33.52,9.3l-15-9L18,0l-.52.31-15,9L2,9.59V26.41l.48.29,15,9L18,36l.52-.31,15-9,.48-.29V9.59ZM31.5,25,18,33.11,4.5,25V11L18,2.89,31.5,11Z"/><polygon class="cls-3" points="8.36 23.81 4.02 26.26 4.02 30.61 11.61 35.52 15.95 33.06 15.95 28.66 8.36 23.81"/><path d="M16.24,28.38l-2.65-1.51V26.5s0,0,0-.05a.29.29,0,0,0,0-.09.36.36,0,0,0,0-.09l0-.07a.31.31,0,0,0-.09-.07l0,0L8.65,23.4a.58.58,0,0,0-.57,0L3.74,25.85a.46.46,0,0,0-.25.41v4.27a.47.47,0,0,0,.24.41l3,1.72v.17a.29.29,0,0,0,0,.09.47.47,0,0,0,.23.52l4.34,2.48a.54.54,0,0,0,.28.08.59.59,0,0,0,.29-.07l4.34-2.46a.48.48,0,0,0,.25-.41V28.79A.5.5,0,0,0,16.24,28.38ZM4.56,30.27V26.53l3.8-2.15,4.16,2.39v3.68a.85.85,0,0,1-.91.79.86.86,0,0,1-.91-.79v-1.8a.29.29,0,0,0,0-.09,1.93,1.93,0,0,0-2-1.67,1.92,1.92,0,0,0-2,1.86v2.77ZM15.42,32.8,11.62,35,7.81,32.77v-4a.91.91,0,0,1,1.82,0v1.7a1.88,1.88,0,0,0,2,1.75,1.87,1.87,0,0,0,2-1.75V28l1.83,1Z"/></svg>