<svg viewBox="0 0 25 25" xmlns="http://www.w3.org/2000/svg">
    <g transform="matrix(1.3333333,0,0,-1.3333333,0,1440)">
        <g transform="matrix(0.36562506,0,0,0.36562506,6.2436239,679.51844)">
            <g transform="translate(-951.78299,530.19213)" fill="#6367ff">
                <g fill="#6367ff">
                    <g transform="translate(972.793,517.04)" fill="#6367ff;">
                        <path d="m 0,0 -10.981,5.685 c -0.83,0.429 -1.818,
                            0.422 -2.642,-0.017 l -10.909,-5.823 c -2.075,
                            -1.109 -4.52,0.644 -4.137,2.966 l 2.013,12.2
                            c 0.152,0.922 -0.159,1.86 -0.833,2.508 l
                            -8.909,8.574 c -1.695,1.632 -0.784,4.499
                            1.543,4.852 l 12.225,1.856 c 0.923,0.14 1.719,
                            0.726 2.128,1.567 l 5.401,11.123 c 1.028,2.116
                            4.037,2.135 5.091,0.032 l 5.543,-11.054
                            c 0.419,-0.835 1.222,-1.41 2.148,-1.539 L
                            9.929,31.229 c 2.33,-0.323 3.278,-3.178 1.603,
                            -4.832 L 2.732,17.71 C 2.067,17.054 1.769,
                            16.112 1.933,15.192 L 4.1,3.019 C 4.513,0.702
                            2.09,-1.082 0,0" fill="#6367ff"/>
                    </g>
                </g>
            </g>
            <circle
                fill="#000000"
                cx="21.065769"
                cy="-1055.1898"
                transform="scale(1,-1)"
                r="10.125"/>
            <circle
                fill="#fafafa"
                cx="21.096104"
                cy="-1055.1595"
                transform="scale(1,-1)" r="8.25"/>
            <rect
                fill="#000000"
                width="2.4134784"
                height="8.129611"
                x="20.086521"
                y="-1061.25"
                transform="scale(1,-1)"/>
            <rect
                fill="#000000"
                width="2.4134784"
                height="5.7161326"
                x="-1055.5338"
                y="-25.802647"
                transform="matrix(0,-1,-1,0,0,0)"/>
        </g>
    </g>
</svg>
