<svg viewBox="0 0 19.8 26.1" xmlns="http://www.w3.org/2000/svg">
	<g fill="#EB3069">
		<ellipse cx="9.9" cy="24.5" rx="8.7" ry="1.3"/>
		<path  d="M19.6,10.6c0.1,3.7-2.3,7.1-5.2,10c-5.4,
			5.1-3.9,5.1-9.1-0.1c-2.4-2.8-4.5-5.8-5-9.5C-0.3,5.6
			,3.6,0.8,8.8,0.2 c0.3,0,0.6-0.1,0.8-0.1C15.1,0,19.6,
			4.3,19.6,10.6z M9.8,13.6c2,0,3.6-1.5,
			3.8-3.4c0.1-2-1.5-3.7-3.5-3.8C8.1,6.4,6.4,8,6.3,9.9
			C6.4,11.8,7.9,13.4,9.8,13.6L9.8,13.6z"
		   stroke="#000000"
		   stroke-width="0.25"
		   stroke-miterlimit="10"/>
</g>
</svg>
